<svg width="11" height="11" viewBox="0 0 11 11" fill="none" xmlns="http://www.w3.org/2000/svg">
<g clip-path="url(#clip0_119_843)">
<path d="M10.088 2.58979C10.0632 2.54165 10.0274 2.50004 9.98356 2.46834C9.93968 2.43664 9.88893 2.41575 9.83545 2.40737C9.78197 2.399 9.72727 2.40337 9.6758 2.42014C9.62433 2.4369 9.57754 2.46559 9.53926 2.50385L8.21926 3.82471C8.15446 3.88857 8.06714 3.92437 7.97616 3.92437C7.88518 3.92437 7.79786 3.88857 7.73306 3.82471L7.16244 3.25323C7.13051 3.22131 7.10518 3.18341 7.0879 3.1417C7.07062 3.09999 7.06173 3.05528 7.06173 3.01013C7.06173 2.96499 7.07062 2.92028 7.0879 2.87857C7.10518 2.83686 7.13051 2.79896 7.16244 2.76704L8.47685 1.45241C8.51626 1.41301 8.54549 1.36463 8.56204 1.31142C8.57859 1.25821 8.58196 1.20178 8.57185 1.14698C8.56175 1.09219 8.53847 1.04067 8.50403 0.996865C8.46959 0.953061 8.42502 0.918286 8.37416 0.895535C7.38137 0.451668 6.14215 0.683269 5.36076 1.45885C4.69689 2.118 4.49902 3.14796 4.81828 4.28469C4.83549 4.34531 4.83559 4.40951 4.81857 4.47018C4.80154 4.53086 4.76805 4.58563 4.72182 4.62844L1.1451 7.89514C1.00576 8.02025 0.893369 8.17243 0.814782 8.3424C0.736194 8.51237 0.693057 8.69657 0.688002 8.88377C0.682948 9.07096 0.716082 9.25722 0.785382 9.43119C0.854683 9.60515 0.958698 9.76318 1.09108 9.89562C1.22347 10.0281 1.38144 10.1321 1.55538 10.2015C1.72932 10.2709 1.91556 10.3041 2.10276 10.2991C2.28995 10.2942 2.47417 10.2511 2.64418 10.1726C2.81419 10.0941 2.96642 9.98177 3.09158 9.84249L6.3933 6.25782C6.4355 6.21218 6.48935 6.17891 6.54905 6.16161C6.60875 6.14431 6.67205 6.14363 6.73211 6.15963C7.05574 6.24831 7.38956 6.29432 7.72512 6.29649C8.44269 6.29649 9.0724 6.06424 9.52658 5.61672C10.3677 4.78807 10.496 3.38257 10.088 2.58979ZM2.13746 9.60723C1.99597 9.62268 1.85316 9.59382 1.72876 9.52465C1.60436 9.45548 1.5045 9.34941 1.44296 9.22106C1.38141 9.09272 1.36122 8.94844 1.38516 8.80813C1.40911 8.66782 1.47601 8.53841 1.57664 8.43774C1.67727 8.33708 1.80666 8.27013 1.94696 8.24613C2.08726 8.22214 2.23155 8.24228 2.35992 8.30378C2.48828 8.36528 2.59439 8.46511 2.66361 8.58948C2.73282 8.71386 2.76172 8.85665 2.74633 8.99815C2.72939 9.15384 2.6598 9.29908 2.54908 9.40984C2.43836 9.5206 2.29315 9.59024 2.13746 9.60723Z" fill="white"/>
</g>
<defs>
<clipPath id="clip0_119_843">
<rect width="11" height="11" fill="white"/>
</clipPath>
</defs>
</svg>
