<svg width="11" height="11" viewBox="0 0 11 11" fill="none" xmlns="http://www.w3.org/2000/svg">
<g clip-path="url(#clip0_119_851)">
<path d="M6.41072 5.32807C6.42765 5.32808 6.44421 5.3231 6.45832 5.31374C6.47242 5.30437 6.48345 5.29105 6.49001 5.27545C6.49658 5.25984 6.49838 5.24265 6.49521 5.22602C6.49203 5.20939 6.48402 5.19407 6.47217 5.18197L4.78779 3.46924C4.77582 3.45709 4.76051 3.44877 4.74379 3.44535C4.72708 3.44193 4.70973 3.44356 4.69395 3.45003C4.67816 3.45651 4.66467 3.46753 4.65517 3.4817C4.64567 3.49588 4.64061 3.51255 4.64063 3.52961V5.07026C4.64063 5.13863 4.66779 5.20421 4.71614 5.25256C4.76449 5.30091 4.83006 5.32807 4.89844 5.32807H6.41072Z" fill="#2D3748"/>
<path d="M4.23242 5.73633C4.14418 5.64927 4.07406 5.54559 4.02612 5.43127C3.97818 5.31695 3.95337 5.19427 3.95312 5.07031V3.09375H2.40625C2.04191 3.09483 1.6928 3.24004 1.43517 3.49767C1.17754 3.7553 1.03233 4.10441 1.03125 4.46875V9.28125C1.03125 9.64592 1.17612 9.99566 1.43398 10.2535C1.69184 10.5114 2.04158 10.6562 2.40625 10.6562H5.5C5.86467 10.6562 6.21441 10.5114 6.47227 10.2535C6.73013 9.99566 6.875 9.64592 6.875 9.28125V6.01562H4.89844C4.77447 6.01545 4.65176 5.99067 4.53744 5.94273C4.42311 5.89478 4.31944 5.82463 4.23242 5.73633Z" fill="white"/>
<path d="M7.99219 2.57782H9.50447C9.5214 2.57784 9.53796 2.57285 9.55207 2.56349C9.56617 2.55413 9.5772 2.54081 9.58376 2.5252C9.59033 2.5096 9.59213 2.4924 9.58896 2.47577C9.58578 2.45914 9.57777 2.44382 9.56592 2.43173L7.88154 0.718997C7.86957 0.706842 7.85426 0.698525 7.83754 0.695105C7.82083 0.691684 7.80348 0.693315 7.7877 0.699789C7.77191 0.706263 7.75842 0.717288 7.74892 0.73146C7.73942 0.745632 7.73436 0.762309 7.73438 0.779368V2.32001C7.73438 2.38839 7.76154 2.45396 7.80989 2.50231C7.85824 2.55066 7.92381 2.57782 7.99219 2.57782Z" fill="#2D3748"/>
<path d="M7.99219 3.26538C7.74206 3.26347 7.50273 3.16326 7.32586 2.98639C7.14899 2.80952 7.04878 2.57019 7.04687 2.32007V0.343506H4.72656C4.3848 0.343904 4.05716 0.479843 3.8155 0.721503C3.57384 0.963163 3.4379 1.29081 3.4375 1.63257V2.40601H4.34242C4.45793 2.40647 4.5722 2.42975 4.67868 2.47451C4.78516 2.51927 4.88175 2.58462 4.96289 2.66683L7.30812 5.05159C7.47174 5.2176 7.56309 5.44155 7.56228 5.67464V8.5935H8.70203C9.40049 8.5935 9.96853 8.01514 9.96853 7.30444V3.26538H7.99219Z" fill="black"/>
</g>
<defs>
<clipPath id="clip0_119_851">
<rect width="11" height="11" fill="white"/>
</clipPath>
</defs>
</svg>
