<svg width="15" height="15" viewBox="0 0 15 15" fill="none" xmlns="http://www.w3.org/2000/svg">
<path d="M13.3796 12.3459L10.623 9.58935C11.2867 8.70586 11.645 7.63047 11.6437 6.52549C11.6437 3.70303 9.34746 1.40674 6.525 1.40674C3.70254 1.40674 1.40625 3.70303 1.40625 6.52549C1.40625 9.34795 3.70254 11.6442 6.525 11.6442C7.62998 11.6454 8.70537 11.2872 9.58886 10.6235L12.3454 13.3801C12.4849 13.5048 12.6669 13.5714 12.854 13.5662C13.0411 13.5609 13.2191 13.4843 13.3514 13.3519C13.4838 13.2196 13.5604 13.0416 13.5657 12.8545C13.5709 12.6674 13.5043 12.4854 13.3796 12.3459ZM2.86875 6.52549C2.86875 5.80235 3.08318 5.09545 3.48494 4.49418C3.88669 3.89292 4.45772 3.42429 5.12581 3.14755C5.7939 2.87082 6.52905 2.79841 7.2383 2.93949C7.94754 3.08057 8.59902 3.42879 9.11036 3.94013C9.62169 4.45146 9.96992 5.10294 10.111 5.81219C10.2521 6.52143 10.1797 7.25658 9.90293 7.92467C9.6262 8.59276 9.15757 9.16379 8.5563 9.56555C7.95503 9.9673 7.24814 10.1817 6.525 10.1817C5.55566 10.1806 4.62635 9.79499 3.94092 9.10956C3.2555 8.42413 2.86991 7.49483 2.86875 6.52549Z" fill="#2D3748"/>
</svg>
