<svg width="28" height="28" viewBox="0 0 28 28" fill="none" xmlns="http://www.w3.org/2000/svg">
<g clip-path="url(#clip0_119_818)">
<path d="M22.0733 2.34508C21.84 1.65675 21.1867 1.16675 20.4167 1.16675H7.58333C6.81333 1.16675 6.17167 1.65675 5.92667 2.34508L3.5 9.33342V18.6667C3.5 19.3084 4.025 19.8334 4.66667 19.8334H5.83333C6.475 19.8334 7 19.3084 7 18.6667V17.5001H21V18.6667C21 19.3084 21.525 19.8334 22.1667 19.8334H23.3333C23.975 19.8334 24.5 19.3084 24.5 18.6667V9.33342L22.0733 2.34508ZM7.99167 3.50008H19.9967L21.2567 7.12842H6.73167L7.99167 3.50008ZM22.1667 15.1667H5.83333V9.33342H22.1667V15.1667Z" fill="white"/>
<path d="M8.74951 14C9.71601 14 10.4995 13.2165 10.4995 12.25C10.4995 11.2835 9.71601 10.5 8.74951 10.5C7.78301 10.5 6.99951 11.2835 6.99951 12.25C6.99951 13.2165 7.78301 14 8.74951 14Z" fill="white"/>
<path d="M19.2495 14C20.216 14 20.9995 13.2165 20.9995 12.25C20.9995 11.2835 20.216 10.5 19.2495 10.5C18.283 10.5 17.4995 11.2835 17.4995 12.25C17.4995 13.2165 18.283 14 19.2495 14Z" fill="white"/>
<path d="M8.1665 23.3333H12.8332V21L19.8332 24.5H15.1665V26.8333L8.1665 23.3333Z" fill="white"/>
</g>
<defs>
<clipPath id="clip0_119_818">
<rect width="28" height="28" fill="white"/>
</clipPath>
</defs>
</svg>
