<svg width="160" height="160" viewBox="0 0 160 160" fill="none" xmlns="http://www.w3.org/2000/svg">
    <path
        d="M156.786 49.0983C159.471 47.7276 160.551 44.4298 159.011 41.8385C152.137 30.2639 142.611 20.4527 131.189 13.2314C118.226 5.03608 103.298 0.478272 87.9678 0.0356213C72.6379 -0.407029 57.4712 3.28178 44.057 10.7155C30.6428 18.1492 19.4749 29.0541 11.7238 42.2874C3.97273 55.5208 -0.0762897 70.5953 0.00108826 85.9314C0.0784662 101.267 4.27939 116.3 12.1636 129.455C20.0479 142.609 31.3252 153.401 44.8137 160.699C56.6991 167.129 69.9157 170.639 83.3736 170.974C86.3867 171.049 88.7349 168.494 88.6175 165.482C88.5001 162.47 85.9609 160.145 82.9487 160.042C71.4495 159.648 60.1706 156.598 50.0076 151.099C38.2409 144.733 28.4033 135.319 21.5255 123.844C14.6477 112.369 10.9831 99.2546 10.9156 85.8763C10.8481 72.498 14.3802 59.3478 21.1418 47.8038C27.9035 36.2598 37.6456 26.7469 49.3474 20.2622C61.0492 13.7775 74.2798 10.5596 87.6528 10.9457C101.026 11.3319 114.049 15.3078 125.357 22.457C135.124 28.6318 143.301 36.9775 149.269 46.8148C150.832 49.3917 154.102 50.469 156.786 49.0983Z"
        fill="url(#paint0_linear_119_780)" />
    <defs>
        <linearGradient id="paint0_linear_119_780" x1="85.5" y1="0" x2="66.4078" y2="150.663"
            gradientUnits="userSpaceOnUse">
            <stop stop-color="#05CD99" />
            <stop offset="1" stop-color="#05CD99" stop-opacity="0" />
        </linearGradient>
    </defs>
</svg>