<svg width="84" height="52" viewBox="0 0 84 52" fill="none" xmlns="http://www.w3.org/2000/svg">
    <path
        d="M79.08 30.8579C80.284 28.0007 81.7709 28.1436 82.3638 28.5721V51.8571H1.5006V11.1433C3.14249 11.6672 5.64731 13.4064 9.84688 11.1433C14.0884 8.8577 14.3621 12.1434 15.3198 16.7148C16.1892 20.8641 18.33 17.2863 22.5715 22.0005C25.9816 25.7905 27.5519 10.2863 28.3182 6.28621C28.8655 3.42906 30.9178 2.71484 31.4651 6.28621C32.0124 11.1433 32.3682 20.6291 32.6965 22.0005C33.2096 24.1434 34.2918 24.4024 35.1594 23.572C36.8013 22.0005 36.5276 16.4581 36.5276 12.572C36.5276 8.8577 38.643 8.8577 38.9905 11.1433C40.3587 20.1434 40.4955 33.8488 42.8215 34.0006C44.5729 34.1148 45.1476 30.572 46.1053 27.1437C46.4646 25.8577 47.7472 24.9723 49.3891 27.1437C51.4415 29.858 52.1256 27.4294 52.2624 26.4291C52.3992 25.4287 53.0686 20.1583 53.2202 9.71526C53.357 0.286704 56.6761 0.715185 56.9144 4.57226C57.7354 17.858 56.7679 35.8576 60.6087 35.8576C62.7979 35.8576 62.7979 31.1326 62.7979 27.2862C62.7979 24.1433 64.5766 23.8576 65.1239 26.4291C65.6712 29.0005 66.0817 32.0008 67.8604 32.0008C69.9309 32.0008 70.5969 28.2862 70.5969 25.4291C70.5969 22.5719 70.8719 19.1527 71.9651 19.0005C74.0175 18.7148 73.7438 28.8576 74.428 32.0008C74.9703 34.4928 77.5749 34.4293 79.08 30.8579Z"
        fill="url(#paint0_linear_119_799)" />
    <path
        d="M82.3638 28.5721C81.7709 28.1436 80.284 28.0007 79.08 30.8579C77.5749 34.4293 74.9703 34.4928 74.428 32.0008C73.7438 28.8576 74.0175 18.7148 71.9651 19.0005C70.8719 19.1527 70.5969 22.5719 70.5969 25.4291C70.5969 28.2862 69.9309 32.0008 67.8604 32.0008C66.0817 32.0008 65.6712 29.0005 65.1239 26.4291C64.5766 23.8576 62.7979 24.1433 62.7979 27.2862C62.7979 31.1326 62.7979 35.8576 60.6087 35.8576C56.7679 35.8576 57.7354 17.858 56.9144 4.57226C56.6761 0.715186 53.357 0.286704 53.2202 9.71526C53.0686 20.1583 52.3992 25.4287 52.2624 26.4291C52.1256 27.4294 51.4415 29.858 49.3891 27.1437C47.7472 24.9723 46.4646 25.8577 46.1053 27.1437C45.1476 30.572 44.5729 34.1148 42.8215 34.0006C40.4955 33.8488 40.3587 20.1434 38.9905 11.1433C38.643 8.8577 36.5276 8.8577 36.5276 12.572C36.5276 16.4581 36.8013 22.0005 35.1594 23.572C34.2918 24.4024 33.2096 24.1434 32.6965 22.0005C32.3682 20.6291 32.0124 11.1433 31.4651 6.28621C30.9178 2.71484 28.8655 3.42906 28.3182 6.28621C27.5519 10.2863 25.9816 25.7905 22.5715 22.0005C18.33 17.2863 16.1892 20.8641 15.3199 16.7148C14.3621 12.1434 14.0884 8.8577 9.84688 11.1433C5.64731 13.4064 3.14249 11.6672 1.50059 11.1433"
        stroke="url(#paint1_linear_119_799)" stroke-width="3" stroke-linecap="round"
        stroke-linejoin="round" />
    <defs>
        <linearGradient id="paint0_linear_119_799" x1="41.9322" y1="2" x2="41.9322" y2="51.8571"
            gradientUnits="userSpaceOnUse">
            <stop stop-color="#0075FF" stop-opacity="0.14" />
            <stop offset="1" stop-color="#582CFF" stop-opacity="0" />
            <stop offset="1" stop-color="#0075FF" stop-opacity="0" />
        </linearGradient>
        <linearGradient id="paint1_linear_119_799" x1="3.82661" y1="11.2857" x2="78.1855"
            y2="45.2003" gradientUnits="userSpaceOnUse">
            <stop stop-color="#0075FF" stop-opacity="0" />
            <stop offset="1" stop-color="#0075FF" />
        </linearGradient>
    </defs>
</svg>