<svg width="84" height="52" viewBox="0 0 84 52" fill="none" xmlns="http://www.w3.org/2000/svg">
    <path
        d="M4.78378 30.8579C3.57973 28.0007 2.09291 28.1436 1.5 28.5721V51.8571H82.3632V11.1433C80.7213 11.6672 78.2165 13.4064 74.0169 11.1433C69.7753 8.8577 69.5017 12.1434 68.5439 16.7148C67.6746 20.8641 65.5338 17.2863 61.2922 22.0005C57.8822 25.7905 56.3118 10.2863 55.5456 6.28621C54.9983 3.42906 52.9459 2.71484 52.3986 6.28621C51.8514 11.1433 51.4956 20.6291 51.1672 22.0005C50.6541 24.1434 49.572 24.4024 48.7044 23.572C47.0625 22.0005 47.3361 16.4581 47.3361 12.572C47.3361 8.8577 45.2208 8.8577 44.8733 11.1433C43.5051 20.1434 43.3682 33.8488 41.0422 34.0006C39.2909 34.1148 38.7162 30.572 37.7584 27.1437C37.3992 25.8577 36.1166 24.9723 34.4747 27.1437C32.4223 29.858 31.7382 27.4294 31.6014 26.4291C31.4645 25.4287 30.7951 20.1583 30.6436 9.71526C30.5068 0.286704 27.1877 0.715185 26.9493 4.57226C26.1284 17.858 27.0959 35.8576 23.2551 35.8576C21.0659 35.8576 21.0659 31.1326 21.0659 27.2862C21.0659 24.1433 19.2872 23.8576 18.7399 26.4291C18.1926 29.0005 17.7821 32.0008 16.0034 32.0008C13.9329 32.0008 13.2669 28.2862 13.2669 25.4291C13.2669 22.5719 12.9918 19.1527 11.8986 19.0005C9.84628 18.7148 10.1199 28.8576 9.43581 32.0008C8.89343 34.4928 6.28885 34.4293 4.78378 30.8579Z"
        fill="url(#paint0_linear_119_811)" />
    <path
        d="M1.5 28.5721C2.09291 28.1436 3.57973 28.0007 4.78378 30.8579C6.28885 34.4293 8.89343 34.4928 9.43581 32.0008C10.1199 28.8576 9.84628 18.7148 11.8986 19.0005C12.9918 19.1527 13.2669 22.5719 13.2669 25.4291C13.2669 28.2862 13.9329 32.0008 16.0034 32.0008C17.7821 32.0008 18.1926 29.0005 18.7399 26.4291C19.2872 23.8576 21.0659 24.1433 21.0659 27.2862C21.0659 31.1326 21.0659 35.8576 23.2551 35.8576C27.0959 35.8576 26.1284 17.858 26.9493 4.57226C27.1877 0.715186 30.5068 0.286704 30.6436 9.71526C30.7951 20.1583 31.4645 25.4287 31.6014 26.4291C31.7382 27.4294 32.4223 29.858 34.4747 27.1437C36.1166 24.9723 37.3992 25.8577 37.7584 27.1437C38.7162 30.572 39.2909 34.1148 41.0422 34.0006C43.3682 33.8488 43.5051 20.1434 44.8733 11.1433C45.2208 8.8577 47.3361 8.8577 47.3361 12.572C47.3361 16.4581 47.0625 22.0005 48.7044 23.572C49.572 24.4024 50.6541 24.1434 51.1672 22.0005C51.4956 20.6291 51.8514 11.1433 52.3986 6.28621C52.9459 2.71484 54.9983 3.42906 55.5456 6.28621C56.3118 10.2863 57.8822 25.7905 61.2922 22.0005C65.5338 17.2863 67.6746 20.8641 68.5439 16.7148C69.5017 12.1434 69.7753 8.8577 74.0169 11.1433C78.2165 13.4064 80.7213 11.6672 82.3632 11.1433"
        stroke="url(#paint1_linear_119_811)" stroke-width="3" stroke-linecap="round"
        stroke-linejoin="round" />
    <defs>
        <linearGradient id="paint0_linear_119_811" x1="41.9316" y1="2" x2="41.9316" y2="51.8571"
            gradientUnits="userSpaceOnUse">
            <stop stop-color="#01B574" stop-opacity="0.14" />
            <stop offset="1" stop-color="#01B574" stop-opacity="0" />
        </linearGradient>
        <linearGradient id="paint1_linear_119_811" x1="80.0372" y1="11.2857" x2="5.67829"
            y2="45.2003" gradientUnits="userSpaceOnUse">
            <stop stop-color="#01B574" />
            <stop offset="1" stop-color="#01B574" stop-opacity="0" />
        </linearGradient>
    </defs>
</svg>