<svg width="10" height="10" viewBox="0 0 10 10" fill="none" xmlns="http://www.w3.org/2000/svg">
<g clip-path="url(#clip0_119_765)">
<path d="M6.82285 1.3541C7.30591 1.35554 7.76877 1.54808 8.11034 1.88965C8.45192 2.23123 8.64445 2.69409 8.6459 3.17715V6.82285C8.64445 7.30591 8.45192 7.76877 8.11034 8.11034C7.76877 8.45192 7.30591 8.64445 6.82285 8.6459H3.17715C2.69409 8.64445 2.23123 8.45192 1.88965 8.11034C1.54808 7.76877 1.35554 7.30591 1.3541 6.82285V3.17715C1.35554 2.69409 1.54808 2.23123 1.88965 1.88965C2.23123 1.54808 2.69409 1.35554 3.17715 1.3541H6.82285ZM6.82285 0.625H3.17715C1.77344 0.625 0.625 1.77344 0.625 3.17715V6.82285C0.625 8.22656 1.77344 9.375 3.17715 9.375H6.82285C8.22656 9.375 9.375 8.22656 9.375 6.82285V3.17715C9.375 1.77344 8.22656 0.625 6.82285 0.625Z" fill="white"/>
<path d="M7.36963 3.177C7.26147 3.177 7.15574 3.14493 7.0658 3.08484C6.97587 3.02475 6.90577 2.93934 6.86438 2.83941C6.82299 2.73948 6.81216 2.62952 6.83326 2.52344C6.85436 2.41735 6.90645 2.31991 6.98293 2.24343C7.05941 2.16695 7.15686 2.11486 7.26294 2.09376C7.36902 2.07266 7.47898 2.08349 7.57891 2.12488C7.67884 2.16627 7.76425 2.23637 7.82434 2.3263C7.88443 2.41623 7.9165 2.52197 7.9165 2.63013C7.91666 2.70199 7.90262 2.77317 7.87519 2.83959C7.84776 2.90601 7.80749 2.96636 7.75667 3.01717C7.70586 3.06798 7.64551 3.10826 7.57909 3.13569C7.51267 3.16312 7.44149 3.17716 7.36963 3.177Z" fill="white"/>
<path d="M5 3.54136C5.28844 3.54136 5.57041 3.62689 5.81024 3.78714C6.05008 3.94739 6.237 4.17516 6.34738 4.44165C6.45777 4.70814 6.48665 5.00137 6.43038 5.28427C6.3741 5.56718 6.2352 5.82704 6.03124 6.031C5.82728 6.23496 5.56742 6.37386 5.28452 6.43013C5.00162 6.4864 4.70838 6.45752 4.4419 6.34714C4.17541 6.23676 3.94764 6.04983 3.78739 5.81C3.62714 5.57017 3.5416 5.2882 3.5416 4.99975C3.54202 4.61309 3.6958 4.24238 3.96921 3.96897C4.24263 3.69556 4.61334 3.54177 5 3.54136ZM5 2.81226C4.56735 2.81226 4.14442 2.94055 3.78469 3.18092C3.42496 3.42128 3.14458 3.76292 2.97901 4.16264C2.81345 4.56235 2.77013 5.00218 2.85453 5.42652C2.93894 5.85085 3.14728 6.24062 3.4532 6.54655C3.75913 6.85248 4.14891 7.06082 4.57324 7.14522C4.99757 7.22963 5.43741 7.18631 5.83712 7.02074C6.23683 6.85517 6.57847 6.5748 6.81884 6.21506C7.05921 5.85533 7.1875 5.4324 7.1875 4.99975C7.1875 4.41959 6.95703 3.8632 6.5468 3.45296C6.13656 3.04272 5.58016 2.81226 5 2.81226Z" fill="white"/>
</g>
<defs>
<clipPath id="clip0_119_765">
<rect width="10" height="10" fill="white"/>
</clipPath>
</defs>
</svg>
