<svg width="12" height="12" viewBox="0 0 12 12" fill="none" xmlns="http://www.w3.org/2000/svg">
<g clip-path="url(#clip0_119_764)">
<path d="M11.625 2.56665C11.203 2.75002 10.7565 2.87082 10.2996 2.92525C10.7798 2.64409 11.1409 2.19741 11.3152 1.669C10.8612 1.93445 10.3654 2.1207 9.8489 2.21978C9.63142 1.99186 9.36987 1.81054 9.08014 1.68684C8.7904 1.56315 8.47854 1.49967 8.16351 1.50025C6.88804 1.50025 5.85586 2.51743 5.85586 3.77134C5.85495 3.94575 5.87494 4.11965 5.91539 4.28931C5.00078 4.24643 4.1052 4.01312 3.28593 3.60429C2.46666 3.19546 1.74175 2.62013 1.15758 1.91509C0.952634 2.26059 0.844249 2.65479 0.84375 3.0565C0.84375 3.844 1.25461 4.54009 1.875 4.9479C1.50744 4.93918 1.1474 4.84189 0.825469 4.66431V4.69243C0.825469 5.79399 1.62234 6.7104 2.67703 6.91899C2.4787 6.97186 2.27432 6.99865 2.06906 6.99868C1.92342 6.99894 1.7781 6.9848 1.63523 6.95649C1.92844 7.85884 2.7818 8.51509 3.79265 8.53384C2.97126 9.16687 1.9628 9.50901 0.925781 9.50649C0.741707 9.50622 0.557804 9.49526 0.375 9.47368C1.42996 10.1473 2.65628 10.5036 3.90797 10.5002C8.15859 10.5002 10.4808 7.03853 10.4808 4.03618C10.4808 3.93775 10.4782 3.83931 10.4735 3.74322C10.9242 3.4226 11.3142 3.02418 11.625 2.56665Z" fill="white"/>
</g>
<defs>
<clipPath id="clip0_119_764">
<rect width="12" height="12" fill="white"/>
</clipPath>
</defs>
</svg>
