<svg width="15" height="15" viewBox="0 0 15 15" fill="none" xmlns="http://www.w3.org/2000/svg">
<path d="M0.9375 11.0151C0.9375 11.4503 1.11035 11.8676 1.41803 12.1752C1.7257 12.4829 2.143 12.6558 2.57812 12.6558H12.4219C12.857 12.6558 13.2743 12.4829 13.582 12.1752C13.8896 11.8676 14.0625 11.4503 14.0625 11.0151V6.50342H0.9375V11.0151ZM2.87109 8.78857C2.87109 8.55547 2.96369 8.33192 3.12852 8.16709C3.29335 8.00227 3.5169 7.90967 3.75 7.90967H5.15625C5.38935 7.90967 5.6129 8.00227 5.77773 8.16709C5.94256 8.33192 6.03515 8.55547 6.03515 8.78857V9.37451C6.03515 9.60761 5.94256 9.83116 5.77773 9.99599C5.6129 10.1608 5.38935 10.2534 5.15625 10.2534H3.75C3.5169 10.2534 3.29335 10.1608 3.12852 9.99599C2.96369 9.83116 2.87109 9.60761 2.87109 9.37451V8.78857Z" fill="#0075FF"/>
<path d="M12.4219 2.34302H2.57812C2.143 2.34302 1.7257 2.51587 1.41803 2.82355C1.11035 3.13122 0.9375 3.54852 0.9375 3.98364V4.74536H14.0625V3.98364C14.0625 3.54852 13.8896 3.13122 13.582 2.82355C13.2743 2.51587 12.857 2.34302 12.4219 2.34302Z" fill="#0075FF"/>
</svg>
