<svg width="15" height="15" viewBox="0 0 15 15" fill="none" xmlns="http://www.w3.org/2000/svg">
<path d="M12.5391 6.56274H8.4375C8.06454 6.56274 7.70685 6.41458 7.44313 6.15086C7.17941 5.88714 7.03125 5.52945 7.03125 5.15649V1.05493C7.03125 1.02385 7.0189 0.994044 6.99693 0.972068C6.97495 0.950091 6.94514 0.937744 6.91406 0.937744H4.21875C3.72147 0.937744 3.24456 1.13529 2.89292 1.48692C2.54129 1.83855 2.34375 2.31546 2.34375 2.81274V12.1877C2.34375 12.685 2.54129 13.1619 2.89292 13.5136C3.24456 13.8652 3.72147 14.0627 4.21875 14.0627H10.7812C11.2785 14.0627 11.7554 13.8652 12.1071 13.5136C12.4587 13.1619 12.6562 12.685 12.6562 12.1877V6.67993C12.6562 6.64885 12.6439 6.61904 12.6219 6.59707C12.5999 6.57509 12.5701 6.56274 12.5391 6.56274Z" fill="#0075FF"/>
<path d="M12.2818 5.52612L8.06865 1.31294C8.06046 1.30479 8.05004 1.29925 8.03871 1.29701C8.02737 1.29477 8.01563 1.29593 8.00495 1.30034C7.99428 1.30476 7.98514 1.31223 7.9787 1.32182C7.97226 1.33141 7.9688 1.34269 7.96875 1.35425V5.15727C7.96875 5.28159 8.01814 5.40082 8.10604 5.48873C8.19395 5.57664 8.31318 5.62602 8.4375 5.62602H12.2405C12.2521 5.62598 12.2634 5.62251 12.273 5.61607C12.2825 5.60963 12.29 5.6005 12.2944 5.58982C12.2988 5.57914 12.3 5.5674 12.2978 5.55607C12.2955 5.54473 12.29 5.53431 12.2818 5.52612Z" fill="#0075FF"/>
</svg>
