<svg width="15" height="15" viewBox="0 0 15 15" fill="none" xmlns="http://www.w3.org/2000/svg">
<g clip-path="url(#clip0_119_963)">
<path d="M7.66289 2.9676C7.61927 2.92588 7.56124 2.90259 7.50088 2.90259C7.44052 2.90259 7.38248 2.92588 7.33887 2.9676L1.94531 8.12004C1.92241 8.14195 1.90418 8.16828 1.89175 8.19744C1.87931 8.22659 1.87291 8.25797 1.87295 8.28967L1.87207 13.1254C1.87207 13.374 1.97084 13.6125 2.14666 13.7883C2.32247 13.9641 2.56093 14.0629 2.80957 14.0629H5.625C5.74932 14.0629 5.86855 14.0135 5.95645 13.9256C6.04436 13.8377 6.09375 13.7185 6.09375 13.5942V9.60978C6.09375 9.54762 6.11844 9.48801 6.1624 9.44406C6.20635 9.4001 6.26596 9.37541 6.32812 9.37541H8.67187C8.73403 9.37541 8.79365 9.4001 8.8376 9.44406C8.88155 9.48801 8.90625 9.54762 8.90625 9.60978V13.5942C8.90625 13.7185 8.95563 13.8377 9.04354 13.9256C9.13145 14.0135 9.25068 14.0629 9.375 14.0629H12.1893C12.4379 14.0629 12.6764 13.9641 12.8522 13.7883C13.028 13.6125 13.1268 13.374 13.1268 13.1254V8.28967C13.1268 8.25797 13.1204 8.22659 13.108 8.19744C13.0955 8.16828 13.0773 8.14195 13.0544 8.12004L7.66289 2.9676Z" fill="#0075FF"/>
<path d="M14.3826 7.15381L12.1912 5.05732V1.87598C12.1912 1.75166 12.1418 1.63243 12.0539 1.54452C11.966 1.45661 11.8468 1.40723 11.7225 1.40723H10.3162C10.1919 1.40723 10.0727 1.45661 9.98476 1.54452C9.89685 1.63243 9.84747 1.75166 9.84747 1.87598V2.81348L8.15059 1.19102C7.9918 1.03047 7.75567 0.938477 7.5005 0.938477C7.2462 0.938477 7.01065 1.03047 6.85186 1.19131L0.620421 7.15322C0.438195 7.329 0.415343 7.61816 0.581163 7.80859C0.622803 7.85666 0.673789 7.89575 0.731016 7.92349C0.788244 7.95122 0.850517 7.96703 0.914046 7.96993C0.977575 7.97284 1.04103 7.96278 1.10055 7.94039C1.16007 7.91799 1.21441 7.88371 1.26026 7.83965L7.33936 2.03066C7.38298 1.98894 7.44102 1.96565 7.50138 1.96565C7.56174 1.96565 7.61977 1.98894 7.66339 2.03066L13.7431 7.83965C13.8326 7.92553 13.9526 7.9724 14.0766 7.96999C14.2007 7.96757 14.3187 7.91606 14.4049 7.82676C14.5848 7.64043 14.5698 7.33281 14.3826 7.15381Z" fill="#0075FF"/>
</g>
<defs>
<clipPath id="clip0_119_963">
<rect width="15" height="15" fill="white"/>
</clipPath>
</defs>
</svg>
