<svg width="14" height="14" viewBox="0 0 14 14" fill="none" xmlns="http://www.w3.org/2000/svg">
<path d="M12.8188 2.61534C12.7851 2.54969 12.7363 2.49295 12.6764 2.44972C12.6166 2.40649 12.5474 2.37801 12.4745 2.36659C12.4016 2.35517 12.327 2.36113 12.2568 2.38399C12.1866 2.40686 12.1228 2.44597 12.0706 2.49815L10.2706 4.29933C10.1822 4.3864 10.0631 4.43522 9.93908 4.43522C9.81502 4.43522 9.69595 4.3864 9.60759 4.29933L8.82946 3.52003C8.78593 3.4765 8.75139 3.42482 8.72782 3.36794C8.70426 3.31106 8.69213 3.2501 8.69213 3.18854C8.69213 3.12697 8.70426 3.06601 8.72782 3.00913C8.75139 2.95225 8.78593 2.90057 8.82946 2.85704L10.6218 1.06437C10.6756 1.01064 10.7154 0.94466 10.738 0.872106C10.7606 0.799552 10.7652 0.722599 10.7514 0.647876C10.7376 0.573153 10.7059 0.5029 10.6589 0.443168C10.6119 0.383436 10.5512 0.336015 10.4818 0.304991V0.304991C9.128 -0.300283 7.43816 0.0155376 6.37263 1.07315C5.46736 1.97198 5.19753 3.37647 5.63288 4.92657C5.65636 5.00923 5.65649 5.09678 5.63327 5.17951C5.61006 5.26225 5.56439 5.33694 5.50134 5.39532L0.623999 9.84991C0.433992 10.0205 0.280731 10.228 0.173566 10.4598C0.0664005 10.6916 0.00757758 10.9428 0.000685018 11.198C-0.00620754 11.4533 0.0389748 11.7073 0.133476 11.9445C0.227977 12.1817 0.369816 12.3972 0.55034 12.5778C0.730864 12.7584 0.946289 12.9004 1.18347 12.995C1.42066 13.0896 1.67463 13.1349 1.92989 13.1281C2.18516 13.1213 2.43637 13.0626 2.6682 12.9555C2.90003 12.8485 3.10761 12.6953 3.27829 12.5054L7.78064 7.6172C7.83818 7.55496 7.91161 7.5096 7.99302 7.486C8.07444 7.46241 8.16074 7.46148 8.24265 7.48331C8.68396 7.60423 9.13918 7.66697 9.59675 7.66993C10.5753 7.66993 11.434 7.35323 12.0533 6.74298C13.2003 5.613 13.3752 3.6964 12.8188 2.61534ZM1.97722 12.1846C1.78427 12.2056 1.58954 12.1663 1.41991 12.072C1.25027 11.9776 1.11409 11.833 1.03017 11.658C0.94624 11.483 0.918703 11.2862 0.951356 11.0949C0.984009 10.9036 1.07524 10.7271 1.21246 10.5898C1.34969 10.4525 1.52613 10.3613 1.71745 10.3285C1.90877 10.2958 2.10552 10.3233 2.28057 10.4071C2.45561 10.491 2.60031 10.6271 2.69469 10.7967C2.78907 10.9663 2.82849 11.1611 2.80749 11.354C2.7844 11.5663 2.68951 11.7644 2.53852 11.9154C2.38754 12.0664 2.18952 12.1614 1.97722 12.1846V12.1846Z" fill="#0075FF"/>
</svg>
